<svg id="Layer_1" data-name="Layer 1" xmlns="http://www.w3.org/2000/svg" xmlns:xlink="http://www.w3.org/1999/xlink" viewBox="0 0 486.9 505"><defs><style>.cls-1,.cls-2,.cls-3,.cls-4,.cls-5,.cls-6,.cls-7{stroke:#fff;stroke-miterlimit:10;stroke-width:5px;}.cls-1{fill:url(#James_Webb_Mirror_2);}.cls-2{fill:url(#James_Webb_Mirror_2-2);}.cls-3{fill:url(#James_Webb_Mirror_2-3);}.cls-4{fill:url(#James_Webb_Mirror_2-4);}.cls-5{fill:url(#James_Webb_Mirror_2-5);}.cls-6{fill:url(#James_Webb_Mirror_2-6);}.cls-7{fill:url(#linear-gradient);}</style><linearGradient id="James_Webb_Mirror_2" x1="171.28" y1="210.83" x2="315.62" y2="294.17" gradientUnits="userSpaceOnUse"><stop offset="0" stop-color="#f0f2c9"/><stop offset="0.27" stop-color="#fffe5d"/><stop offset="0.34" stop-color="#fff254"/><stop offset="0.56" stop-color="#fecf3a"/><stop offset="0.67" stop-color="#fec230"/><stop offset="0.73" stop-color="#f1b830"/><stop offset="0.83" stop-color="#cf9f2f"/><stop offset="0.97" stop-color="#98762d"/><stop offset="1" stop-color="#8c6d2d"/></linearGradient><linearGradient id="James_Webb_Mirror_2-2" x1="171.28" y1="44.17" x2="315.62" y2="127.5" xlink:href="#James_Webb_Mirror_2"/><linearGradient id="James_Webb_Mirror_2-3" x1="315.62" y1="127.5" x2="459.96" y2="210.83" xlink:href="#James_Webb_Mirror_2"/><linearGradient id="James_Webb_Mirror_2-4" x1="26.94" y1="127.5" x2="171.28" y2="210.83" xlink:href="#James_Webb_Mirror_2"/><linearGradient id="James_Webb_Mirror_2-5" x1="26.94" y1="294.17" x2="171.28" y2="377.5" xlink:href="#James_Webb_Mirror_2"/><linearGradient id="James_Webb_Mirror_2-6" x1="171.28" y1="377.5" x2="315.62" y2="460.83" xlink:href="#James_Webb_Mirror_2"/><linearGradient id="linear-gradient" x1="315.62" y1="294.17" x2="459.96" y2="377.5" xlink:href="#James_Webb_Mirror_2"/></defs><polygon class="cls-1" points="291.56 169.17 195.34 169.17 147.22 252.5 195.34 335.83 291.56 335.83 339.67 252.5 291.56 169.17"/><polygon class="cls-2" points="291.56 2.5 195.34 2.5 147.22 85.83 195.34 169.17 291.56 169.17 339.67 85.83 291.56 2.5"/><polygon class="cls-3" points="435.9 85.83 339.67 85.83 291.56 169.17 339.67 252.5 435.9 252.5 484.01 169.17 435.9 85.83"/><polygon class="cls-4" points="147.22 85.83 51 85.83 2.89 169.17 51 252.5 147.22 252.5 195.34 169.17 147.22 85.83"/><polygon class="cls-5" points="147.22 252.5 51 252.5 2.89 335.83 51 419.17 147.22 419.17 195.34 335.83 147.22 252.5"/><polygon class="cls-6" points="291.56 335.83 195.34 335.83 147.22 419.17 195.34 502.5 291.56 502.5 339.67 419.17 291.56 335.83"/><polygon class="cls-7" points="435.9 252.5 339.67 252.5 291.56 335.83 339.67 419.17 435.9 419.17 484.01 335.83 435.9 252.5"/></svg>